<svg class="svg-icon" style="width: 1em; height: 1em;vertical-align: middle;fill: currentColor;overflow: hidden;" viewBox="0 0 1024 1024" version="1.1" xmlns="http://www.w3.org/2000/svg"><path d="M384 853.333333h256v85.333334H384z m337.322667-268.288C765.269333 533.589333 810.666667 480.384 810.666667 384c0-164.650667-134.016-298.666667-298.666667-298.666667S213.333333 219.349333 213.333333 384c0 97.493333 45.525333 150.528 89.642667 201.813333 15.274667 17.834667 31.104 36.309333 46.250667 57.557334 8.618667 12.416 25.173333 74.112 35.456 132.096l6.229333 35.2h242.133333l6.272-35.157334c10.368-58.026667 27.008-119.893333 35.584-132.309333 15.061333-21.461333 31.018667-40.106667 46.421334-58.154667z m-116.224 9.088c-18.517333 26.325333-33.962667 88.533333-42.922667 131.2h-100.309333c-8.917333-42.752-24.405333-105.088-43.136-131.413333a874.752 874.752 0 0 0-51.029334-63.658667C326.144 481.877333 298.666667 449.877333 298.666667 384c0-117.632 95.701333-213.333333 213.333333-213.333333s213.333333 95.701333 213.333333 213.333333c0 64.896-27.434667 97.024-68.906666 145.621333-15.914667 18.688-33.962667 39.808-51.328 64.512z" fill="" /></svg>